<svg version="1.1" id="Layer_1" xmlns="http://www.w3.org/2000/svg" xmlns:xlink="http://www.w3.org/1999/xlink" x="0px" y="0px" viewBox="528.6888 -74.6221 1583.3113 1669.86" enable-background="new 528.6888 -74.6221 1583.3113 1669.86" xml:space="preserve">
<path d="M2076.835,964.1523c-2.2366-5.743-4.2532-11.5765-6.8052-17.1921c-1.3616-2.9958-2.8743-5.9282-4.6353-8.7108
	c-1.6025-2.5323-1.009-3.999-2.416-6.1883c-1.3679-2.1334-2.2954-1.3361-4.0671-4.1222c-1.7473-2.7476-3.6379-5.4011-5.5959-8.0016
	c-1.9387-2.5747-3.9441-5.0978-5.9504-7.6197c-2.0924-2.63-2.5769-5.496-4.5326-7.9653
	c-4.9675-6.272-11.0424-12.3876-10.7904-20.7739c0.3398-11.3149-1.3875-21.4477-3.6045-33.0834
	c-5.0375-26.4386-13.9849-52.1113-27.3134-75.5497c-5.7015-10.0261-12.1223-20.6033-20.0745-28.3669
	c-3.4507-3.3748-5.595-7.5977-9.1443-11.067c-2.0212-1.9756-4.1154-2.8481-6.142-4.903c-2.4684-2.5031-3.9241-6.1866-7.1934-7.8222
	c-4.9752-2.4891-9.4023-5.3984-12.8242-9.8959c-1.7811-2.3411-8.2466-6.9601-11.1807-7.2411
	c-1.2552-2.4555-7.2372-6.491-9.8391-7.1675c-3.1801-0.827-7.8463-4.0903-11.2438-5.9235
	c-7.0508-3.8045-14.6479-7.9215-22.6178-9.6617c-9.4082-2.0541-18.2327-6.2255-27.9949-6.3179
	c-0.7035-1.4469-8.1316-2.1292-9.5145-2.1292c-3.3501,0-7.495-0.9324-10.397-0.9324c-8.2123,0-14.5979-2.2482-23.5615-2.6861
	c-6.7434-0.3295-15.8483,0.0975-20.7339,1.0003c-11.844,3.915-24.4032,7.477-36.7301,10.9313
	c-13.9366,3.9055-29.0493,6.7805-41.9872,13.4744c-2.9044,1.5028-4.807,2.4341-6.7701,4.7442
	c-4.964,1.5786-6.6135,6.2574-11.1652,8.0113c-1.7256-1.6531-24.2806,17.6853-23.7338,20.687
	c0.2424,1.3301-4.8032,4.9464-5.7056,6.2254c-2.2928,3.2496-6.1766,5.7455-8.0337,8.9208
	c-1.8029,3.0826-3.7941,3.6515-5.6844,6.6569c-1.3794,2.1929-4.6226,4.6349-5.5089,6.676
	c-3.4143,7.8625-11.1094,15.5367-16.1279,22.9686c-2.6139,3.8723-5.2311,7.7449-8.0149,11.4983
	c-4.8589,6.5511-4.1869-2.2683-8.5088-3.9985c0.672-2.9764-2.6772-4.9403-3.6807-7.4823
	c-1.6516-4.1846-4.3778-7.9176-7.4429-11.1759c-4.2422-4.5095-0.4639-13.3354-0.4745-19.3928
	c1.6476-0.3022,2.0645-9.4089,2.1584-10.5225c0.661-7.8234-0.2501-14.5062-1.791-20.755
	c-1.6067-6.5155-4.2133-13.0555-5.8496-18.7029c-2.3937-8.2613-8.0973-17.0718-5.7938-26.0477
	c-2.1646,0.1078-1.3182-1.4714-0.9669-3.4344c0.8053-4.5216-1.6351-5.0576-1.1049-8.8715c0.4985-3.6022-0.4805-6.0224-0.4908-9.5074
	c-0.012-4.0065-2.0566-9.6169-2.7505-13.9321c-1.8079-11.2447-4.4875-22.1656-6.5111-33.2737
	c-1.8425-6.4384-4.5438-17.1936-8.8325-24.5082c-5.657-9.6483-7.9346-22.2595-11.6146-32.8782
	c-3.1082-8.9682-5.6475-18.7307-8.6926-27.308c-3.0206-8.5062-6.3781-17.2922-9.3114-26.0201
	c-3.7291-11.0954-7.0654-22.6071-11.4019-33.5566c-2.8361-7.161-4.9211-15.6415-6.7731-23.1223
	c-2.0831-8.4154-4.8118-16.9593-7.4756-25.1506c-7.3538-22.6138-14.0298-45.398-21.6013-67.9694
	c-3.3446-9.9707-5.9689-20.4855-10.2598-30.105c-0.5623-1.2606-1.7861-8.6742-4.027-8.6742c-3.4625,0-1.7858,7.4118-0.8267,8.5962
	c2.7125,3.3384,3.4069,10.5448,4.5228,14.8743c1.4973,5.8089,2.9291,11.6348,4.2859,17.4781
	c1.4321,6.1676,2.6218,23.9079,6.3948,27.1391c7.4512,36.6877,15.7482,74.1032,19.5668,111.3709
	c0.2284-0.1109,0.4567-0.2218,0.6851-0.3327c0.7631,6.2657,1.4611,12.5984,3.3767,18.6416
	c-2.6976,4.4403-8.3208-13.3074-8.8813-15.9227c-1.946-9.0798-5.3882-17.7327-8.3561-26.5044
	c-2.8534-8.4335-3.7537-17.5186-6.0978-26.1976c-2.7244-10.0869-4.4507-19.8575-7.3099-30.5511
	c-1.9119-7.15-3.7896-14.2942-5.7971-21.5537c0.5305-3.7243-1.9137-10.496-5.365-12.2238
	c-0.0441,3.4672-0.6642,12.1207,2.6488,14.5474c0.3282,3.6891,2.1011,16.7731,3.8864,17.7028
	c2.1857,13.9606,4.6685,26.3185,6.9832,39.566c0.884,5.0594,3.7775,38.4493,4.9827,38.5209
	c0.2323,5.6206,0.0336,9.5069,1.3816,14.9804c1.3711,5.5681,1.3131,9.5887,2.1057,15.6595
	c0.8304,6.3601,1.5243,12.1384,2.2593,18.2081c0.2192,1.8099,4.0381,18.9957,2.2878,18.9957c-2.6653,0-4.5862-9.2793-5.3157-11.2236
	c-2.212-5.8956-5.5413-10.7858-6.2222-17.557c-0.3165-3.1469-2.3229-6.4964-3.094-9.7926
	c-0.9434-4.0319-2.0209-8.0309-2.9562-12.0648c-0.7742-3.3388-0.8958-17.371-2.594-17.8436
	c0.0294-1.4193,0.7433-10.6977-0.2666-10.6977c-0.9099,0-2.5643-9.8501-2.7655-11.3108
	c-0.5045-3.6622,0.7404-19.6566-5.3014-18.6505c0.2667,27.1462,7.1287,50.0914,6.1573,77.3557
	c-0.0841,2.3583,1.5653,4.0291,1.5759,7.0056c0.0128,3.5817-0.2063,7.1512,0.0956,10.7293
	c0.0327,3.6032-0.4463,7.3405-0.1199,10.926c0.9445,10.373,2.0359,21.33,1.9563,32.7562
	c-5.6254-2.5152-5.9827-14.2236-5.9355-19.5708c0.0674-7.6203,0.8149-16.0502-0.0387-23.6214
	c-0.4697-4.1661-0.542-23.9185-6.5646-25.1728c-2.3977,2.911-1.0077,11.9597-1.0133,16.5636
	c-0.016,12.9234,0.0146,25.8464,0.002,38.7697c-0.016,16.4913,1.8468,29.8806,0.957,46.1571
	c-3.5051-0.0965-0.6881-14.6656-2.2865-18.1173c-2.8354-1.0175-3.8074,1.873-3.707,4.3602c0.1252,3.1044-0.3677,6.6771-0.748,9.9727
	c-3.181,1.5471-0.4092,9.0999-0.6869,12.0012c-0.6086,6.3565-1.5392,12.6462-2.5459,19.4965
	c-0.6396,4.3524-2.7699,8.921-1.2052,13.1904c-0.0808,0.9877-0.9727,0.9958-1.3831,1.9319
	c-1.1232,2.5538,0.2689,5.7842-0.4529,8.5729c-0.7849,3.0322-1.0444,6.1583-1.6121,9.2307c-1.7672,0.8297-3.851,0.874-5.3263,2.3098
	c-2.3336,2.4525-2.7946,11.6005-3.521,14.9644c-3.3633,15.5723-6.3151,31.3039-11.5012,46.4046
	c-5.5333,9.3035-8.5342,17.6985-12.0365,27.5891c-3.5686,10.0777-9.6201,22.873-10.884,33.3846
	c-6.5463-2.4069-7.8589-9.7757-12.8928-13.1426c-5.54-3.7054-5.1115-8.4117-11.616-10.9484
	c0.2122-0.2344,0.5215-0.4171,0.8079-0.8097c-4.03-7.7941-15.1953-15.0735-21.6296-21.6843
	c-2.4265-2.493-5.1757-3.3935-7.3518-5.2989c-2.2413-1.9625-3.7639-5.0176-6.2455-7.2565
	c-1.0409-0.9391-9.5228-10.0628-10.4764-8.6676c-4.3243-3.2663-5.9005-7.8506-10.1471-10.5621
	c-3.5637-2.277-6.7849-6.2136-9.8773-9.1389c-5.1001-4.8245-14.6508-8.1638-17.5287-14.7928
	c-9.1433-21.0607-7.5826-43.9476-21.95-63.3541c-8.2909-8.406-16.1665-18.9612-23.0995-27.8723
	c-3.67-4.717-8.6438-8.1735-12.5015-12.7159c-5.1021-6.0078-9.3384-12.9164-13.5773-19.5411
	c-7.5815-11.8484-15.2441-23.5938-23.2729-35.1462c-4.1875-6.0254-8.4774-11.9786-12.7675-17.9311
	c-1.4822-2.0564-8.8243-14.7334-10.8813-14.4204c-0.5188,0.0789-6.4568-9.446-7.2932-10.5438
	c-4.0825-5.3582-8.0553-10.799-12.1511-16.1471c-4.36-5.6929-8.8615-11.2902-13.7565-16.5354
	c-1.6334-2.1658-3.7452-5.6078-6.3054-7.9202c-1.6396-7.6945-13.188-14.1918-18.214-19.7715
	c-4.6732-5.1881-9.2102-10.4978-13.6549-15.8825c-0.6632-2.4716-2.6205-5.2433-5.3298-5.7255
	c-1.4943-1.7103-0.8695-3.4433-2.8596-5.1675c-5.9548-5.1591-9.3026-11.282-14.7263-16.5381
	c-2.3751-2.3018-5.5204-4.9845-7.7974-7.6118c-2.6615-3.071-3.9713-7.3745-8.2296-9.473c-2.8474-3.8039-6.1145-9.1175-9.5138-12.493
	c-1.8145-1.8016-3.5238-2.4489-5.0837-4.4505c-1.3633-1.7492-2.1998-3.8982-3.8682-5.459c-1.441-1.3481-3.2836-1.8142-4.5399-3.2746
	c-0.0118-3.7786-4.1373-6.3369-7.0291-7.8564c-1.478-1.8446-1.3104-3.5729-2.8325-5.2303c-1.9916-2.1687-4.4543-3.0555-6.528-5.2652
	c-0.1337-2.703-5.395-8.7854-7.8457-9.0662c0.0712-3.9903-5.5881-6.4433-7.2278-9.6005c-1.0378-1.9983-2.9448-3.477-4.8003-4.6574
	c-2.2142-1.4085-1.8953-4.0103-4.2862-5.83c-5.5413-4.2177-10.8011-11.1715-15.52-16.5727
	c-2.1851-2.5009-4.5672-4.8939-6.6472-7.3104c0.3468-2.1913-1.3209-3.8459-2.9965-4.9124c-5.0535-3.2161-1.3147-1.248-4.5997-5.7131
	c-1.5318-2.0829-4.0775-2.8603-5.9022-4.8351c0.1535-2.1342-1.4096-3.8911-2.9503-5.1093
	c-1.7145-1.3556-4.1675-6.5203-6.4756-6.5203c-4.3576,0-2.2996-7.0924-7.3972-7.8193c-2.97-3.8893-5.776-7.0419-8.0375-11.0832
	c-1.4375-2.5688-3.4286-3.4856-4.9105-5.9352c-1.4993-2.4783-3.2692-3.2634-4.7072-5.6367
	c-1.8105-2.9882-6.2142-6.3827-8.5658-9.0368c-5.2569-5.9333-11.6481-13.2355-15.5056-19.8579
	c-1.9096-3.2784-7.0797-7.5581-9.795-10.2456c-0.0161-3.0083-3.5156-4.502-5.2972-6.5113
	c-3.2141-4.1723-7.413-8.1308-9.6017-12.6288c-0.7106-1.4601-7.2421-8.4783-8.5606-8.7918c0.192-2.1274-1.4458-3.8408-3.0465-4.9334
	c-2.2275-1.5204-1.6091-3.2362-3.8765-4.8748c-3.8987-2.8175-7.5874-8.1523-9.6031-12.2735
	c-1.5016-3.0702-5.1071-5.863-6.9456-8.9769c-1.2504-2.1179-2.7111-2.8352-3.8869-4.894c-0.8359-1.3109-1.9915-2.2082-3.4666-2.6919
	c-0.1937-1.9906-1.1123-3.5629-2.7557-4.7168c-3.7911-2.7414-4.2745-6.5686-7.5291-9.399
	c-3.5179-3.0595-5.3612-7.5469-8.4846-10.442c-5.8383-5.4116-9.153-11.4503-14.627-17.1842
	c-1.5545-2.1801-4.0622-4.8435-6.3596-7.5029c-2.4294-2.8122-3.1567-5.9868-6.5817-7.8751
	c-1.5494-2.7622-5.0848-8.0781-7.3716-10.0678c-9.1111-7.9273-15.9534-19.1462-23.7126-28.5181
	c-6.4681-7.8123-12.3613-15.4172-18.5742-23.4988c-3.9388-5.1245-33.7511-44.8032-39.6154-29.2138
	c1.0029,5.4516,1.3718,9.5797,2.9395,15.2326c0.5521,1.991,2.8702,14.5842,4.3989,14.8936
	c1.2191,0.2468,4.0119,13.736,4.673,15.7257c2.187,6.5817,4.637,13.0806,6.5057,19.7646
	c5.5928,16.3321,14.8765,33.2484,23.8544,48.9953c5.8971,10.3433,14.595,20.5515,19.0746,31.4326
	c0.7098,1.7242,5.3359,10.2173,7.1369,10.2622c3.1739,6.2054,7.1465,12.0261,11.5356,17.4315
	c12.5876,22.021,28.1425,44.1218,43.6564,64.168c5.9684,7.712,12.3848,15.5147,17.0245,23.8638
	c0.908,1.634,2.3002,3.3611,4.3109,3.5983c0.2696,2.1265,1.1701,4.101,2.6854,5.6295c1.9473,1.9643,3.6884,4.3763,4.5948,7.1061
	c-1.5311-0.0494-6.6726-6.5306-7.845-7.6919c-3.4652-3.4324-6.9232-6.8721-10.3763-10.3167
	c-6.8458-6.8289-13.6725-13.6769-20.4991-20.5251c-8.9605-8.9892-18.9222-17.4592-27.046-26.6177
	c-1.1014-3.4158-4.1509-5.9565-6.9036-8.0371c-2.1451-1.6214-3.088-4.6126-5.8943-5.338c0.2304-4.096-7.2333-9.7223-10.5734-11.5118
	c-0.0204-3.088-2.9786-5.3552-5.2922-6.8631c-2.5675-1.6733-3.9509-4.6032-6.3353-6.6738
	c-4.1915-3.6399-6.5623-7.6743-11.2314-11.1806c-0.0322,0.2811-0.0643,0.5622-0.0964,0.8433
	c-3.209-3.4781-4.1013-7.54-8.4505-10.6122c-0.0479,0.6221-0.1176,1.2477-0.1839,1.8666c-5.149-6.3124-8.1038-13.5123-14.9491-18.77
	c-1.803-1.3848-2.6959-3.3934-4.6512-5.5265c-1.7224-1.8807-3.5406-3.9245-5.9741-4.9024
	c-1.2487-1.4594-0.8664-3.1331-2.2881-4.6848c-2.9467-3.2161-6.4352-6.4943-9.6828-9.517c-2.492-2.3194-4.461-5.0194-6.2399-7.0552
	c-3.1482-2.4946-7.9295-6.318-10.3608-9.3131c-2.9193-3.5983-5.2422-9.1842-10.0748-10.8974
	c-7.2457-9.0114-15.4391-17.7325-25.8033-23.1581c-1.7315-0.9064-9.9097-5.3001-9.3594,0.6468
	c-0.4305,0.6455-2.5667,6.8773,0.1785,8.3855c2.3528,9.6461,6.6963,19.0528,10.3607,28.2467
	c5.0781,12.7348,9.4217,25.8969,16.1105,37.9222c2.6026,4.6791,3.4285,8.7444,7.5424,12.7958
	c-0.8838,3.4618,6.2779,10.8689,8.1874,13.8926c6.9446,10.9963,14.7137,21.9326,22.6401,32.2189
	c7.246,9.4035,15.4862,19.3293,21.5272,29.1929c1.5479,2.5274,4.4445,4.5181,6.1779,6.825c0.0971,1.7793,5.963,9.1476,7.7328,9.537
	c0.439,3.2638,3.2422,4.6432,5.4443,7.0584c2.7391,3.0039,6.2988,10.9377,10.1201,12.4692
	c2.0195,4.3728,5.9723,7.7563,8.9413,11.4722c2.8798,3.6042,6.9392,8.2263,10.4644,12.1805
	c1.5919,1.7856,3.7393,2.945,5.0945,4.8713c1.478,2.101,1.058,4.0297,3.3558,5.7751c2.5297,1.9215,4.51,7.3301,7.8148,7.8555
	c0.321,3.1522,6.0968,8.1528,8.904,9.6969c0.9177,2.8937,5.1798,7.3734,7.4508,9.1593c2.9019,2.282,5.515,5.659,7.5123,8.7403
	c-4.0216-0.6072-9.2013-6.666-12.2966-9.038c-4.7228-3.6192-10.47-6.9352-13.9554-11.7922c-0.8497-1.1841-6.9236-6.088-8.2507-6.088
	c-2.3266,0-7.8787-7.4671-11.0835-8.5581c-0.8047-2.8413-6.2039-5.598-8.5586-7.4931c-2.5372-2.042-5.2698-3.951-7.6882-6.0905
	c-2.0351-3.7332-6.0925-5.2038-8.7459-8.5345c-3.2816-4.1194-7.7635-5.5848-10.8572-9.8993
	c-2.3985-3.3449-5.5963-3.3813-7.854-6.7467c-1.469-2.1898-3.8083-4.1465-6.4129-4.7927c-0.6581-1.6386-2.1144-3.4033-3.95-3.7524
	c-1.1147-3.7061-4.9332-5.277-8.0884-6.8161c-2.2958-1.9548-3.7484-5.6078-6.72-7.5797
	c-4.4097-2.9262-6.7184-6.7066-10.6179-10.1533c-3.5131-3.1051-6.9121-4.5133-9.5194-8.3676
	c-2.7925-4.1281-7.652-5.4277-10.3912-9.5058c-1.299-1.9339-3.4871-3.3258-5.6144-4.1706
	c-1.4066-2.2063-4.5715-5.4331-6.5524-7.1973c-0.9047-0.8057-5.9346-5.2018-7.1658-5.2018
	c-1.1945-3.3024-6.5186-7.114-9.6431-8.4172c-0.6655-3.6029-6.734-4.0224-6.734-6.1073c0-2.8169-7.2402-8.0938-9.7225-8.4431
	c-4.8127-8.9052-15.2789-13.4015-21.0021-20.9971c-0.5656-0.7506-3.171-3.8016-4.3365-1.7857
	c-2.2595-1.8447-4.6017-3.5977-7.1249-5.07c-1.8387-1.0729-5.5854-4.9396-6.7776-5.3713
	c-19.925-7.2155,2.3644,36.9668,4.5574,41.7649c4.1505,9.081,8.802,18.2305,11.8206,27.5217
	c1.6924,5.2091,5.007,9.8392,7.4218,14.6528c1.5082,3.0065,5.4767,9.8519,8.2484,11.4286
	c2.3788,7.0439,9.861,14.8578,14.6365,20.5765c2.1167,2.5349,3.6667,4.7214,5.287,7.3865c0.8248,1.3382,1.9885,2.2342,3.491,2.688
	c-0.2642,2.2294,1.5551,3.6797,3.0927,4.873c5.1485,3.9999,7.2838,12.3806,13.2192,15.5769
	c0.3074,1.4824,3.3865,4.5804,4.8098,4.9673c0.0104,2.6297,3.8461,5.5538,5.5513,7.0436
	c3.5361,3.0894,6.9307,7.2273,10.0629,11.0863c1.4146,1.7429,3.3127,1.3008,4.4721,2.8561
	c0.1618,2.6126,5.0233,7.0558,7.0084,8.5517c5.7946,4.3664,10.9421,11.9488,16.3657,17.3833
	c5.3489,5.3597,13.7838,11.1053,17.1259,17.7127c-13.3487-6.2499-26.04-17.0806-37.8907-26.2165
	c-13.8829-10.7024-28.4432-20.8375-42.6816-31.5864c-18.9579-14.3117-38.3713-27.4928-57.174-42.1673
	c-3.9855-3.1105-7.8126-6.4221-11.8895-9.4156c-3.8992-2.863-8.7417-7.5301-13.264-9.0668
	c-4.6111-1.5668-13.451-5.7053-16.5673-0.0679c-2.5143,4.5486,2.6308,12.7622,4.0188,16.6301
	c3.1277,8.7164,7.9323,16.5711,11.7053,24.5779c9.6422,20.4619,18.3032,37.6591,32.5321,54.9221
	c1.0709,4.0393,5.6022,6.6839,7.8419,10.1802c1.3495,2.1068,5.6244,6.993,7.4424,8.8038
	c6.3635,6.3384,13.9368,12.1398,20.0613,18.2592c4.6829,4.6788,8.9958,9.6475,14.7543,13.1335
	c2.4959,1.5109,3.783,5.7236,7.1332,5.8141c1.5295,1.2881,5.0245,4.6052,5.5431,6.5589
	c-4.7809-1.6345-10.0582-3.6869-14.6456-6.5759c-0.0071,0.3361-0.0141,0.6721-0.0212,1.0081
	c-14.7813-7.1496-29.3554-14.4848-45.7834-19.1056c-5.0806-1.429-1.8548-1.5467-5.4805-1.8883
	c-4.2542-0.4008-5.8925,0.2079-9.3524,1.0645c-6.8724,1.7015-5.7941,6.219-5.8103,12.0802
	c-0.0164,5.9504,3.9645,13.817,6.3461,20.259c4.1415,11.2029,7.6396,22.6324,12.0173,33.7465
	c1.9458,4.9402,4.1639,9.8027,7.0547,14.2698c-0.6532,2.1343,2.4382,6.9186,3.6835,8.5591
	c2.6818,3.5388,9.4996,10.3271,10.1946,13.4017c1.3406,3.4908,4.2388,7.5092,8.2777,7.9637
	c0.7292,2.6728,10.3204,9.9198,13.2847,10.5602c3.2452,1.9774,6.3125,4.229,9.562,6.1998c2.4536,1.4881,5.0209,4.2973,7.3715,5.2669
	c3.9113,1.6134,13.0735,4.7703,13.7828,8.2949c-7.733,0.4475-16.4927-2.1001-24.1459-3.6558
	c-3.5753-0.7267-5.3948-2.0763-8.7162-2.0315c-6.2993,0.0849-12.9733-1.6801-19.0485,0.0822
	c-1.756,0.5094-6.9233,2.8516-8.9419,4.6883c-4.4658,4.0632-3.726,8.136-3.4709,13.5511
	c0.3762,7.9866,4.2444,19.5255,7.0831,28.7112c3.2012,10.3579,5.6207,20.9364,8.9066,31.2656
	c1.9444,6.1123,4.2164,12.1364,7.1111,17.8672c2.0916,4.1411,4.1548,10.8802,7.0597,14.3362
	c2.8405,3.3792,5.3138,9.2819,9.3849,11.5778c1.1553,3.3218,6.2091,5.6677,8.6254,8.5248
	c-8.4118,3.634-18.022,9.3531-20.9382,18.4191c-3.3792,10.5098-8.8649,22.3391-8.2278,33.382
	c-2.2543,1.2149-0.9777,13.0922-0.9516,16.4892c0.0202,2.6395-1.3221,10.9383,0.1259,12.6304
	c2.2637,2.6442,2.5516,12.9721,3.5397,17.2758c1.4648,6.3794,2.5286,11.4915,5.5823,16.9907
	c4.4128,7.9493,7.6936,11.5087,17.2268,15.4056c9.0873,6.8269,28.1967,2.8599,40.2339,3.0578
	c-0.0474,2.9667-14.5501,8.8725-17.798,10.5643c-3.0624,1.5953-4.4671,4.463-7.2305,6.506
	c-3.2948,2.436-7.5806,7.1021-8.9174,11.1043c-1.9492,5.8357-2.8842,12.0999-3.6261,19.1516
	c-0.1324,1.2591-1.9465,3.6802-2.0173,3.9754c-0.9102,3.791-0.3118,9.4498-0.0447,13.3208
	c1.019,14.7673,5.21,34.9081,13.8939,49.8096c2.1956,3.7676,5.8906,7.4127,9.2054,10.1434
	c1.7495,1.4412,12.5878,2.8615,12.6014,4.187c0.0126,1.2265,22.2244-1.5951,25.2628-0.6487
	c-1.4769,0.6945-2.4014,1.8328-2.7736,3.4148c-2.7173,1.7264-5.2251,3.7917-7.4419,6.126
	c-3.1946,3.364-5.3271,7.2853-8.6171,10.4293c-2.7539,2.6317-5.1385,13.5837-4.5802,17.1172
	c-1.7968,1.0535,0.0154,23.9742,1.5694,23.9248c-0.9016,0.0287,10.6918,32.8845,13.3253,36.2887
	c5.0453,4.4649,9.4166,11.4797,16.0869,13.7274c2.8352,1.2146,9.189,1.1365,13.7558,1.1044
	c4.7709-0.0336,7.7855-1.6374,12.9797-2.9556c7.7008-1.9543,17.1205-9.2841,25.1508-8.7167
	c-5.2126,6.8749-14.2279,10.8109-18.8215,18.4849c-1.52,2.5392-12.9962,18.5463-8.0332,21.8145
	c0.0357,2.7057-0.5783,1.9804-0.8254,4.5005c-0.4179,4.2625,0.5963,6.3137,0.7467,9.91c0.0888,2.1223,3.0656,7.5811,3.9935,10.0405
	c1.7212,4.5619,4.2851,9.5685,7.8106,13.0815c3.4636,3.4515,6.88,6.2745,11.248,8.8357c3.1663,1.8566,8.6154,5.2823,12.379,4.9973
	c1.5453,0.5837,2.3421,2.2046,4.2844,2.2046c9.3842,0,3.2936,0.9252,2.877,7.7053c-1.1833,19.2566,16.5929,32.3096,33.93,37.7974
	c1.6947,0.5365,10.3174,1.021,10.7668,2.0472c2.2521,1.9438,0.3391,9.1818,1.2352,11.9257
	c3.4183,10.467,13.4565,15.6561,23.4724,18.7916c6.8982,2.1594,12.5423,2.9132,19.9661,3.324
	c3.5628,2.9031,3.6502,7.1495,5.4155,10.8853c2.0964,4.4362,10.6479,9.1854,15.4473,9.6768
	c8.0453,5.0862,17.2264,4.9874,26.368,4.7734c4.3097-0.1008,6.251-1.0122,9.4638-1.5812c3.0125-0.5404,3.6941,1.8896,4.7405,4.3821
	c1.6147,3.8485,3.4585,5.257,7.2063,6.9152c5.5021,2.4308,12.8366,4.7449,17.7656,4.7876
	c1.9197,0.0167,13.1758,0.5657,13.1735-0.4846c-0.0023-0.9657,2.1372-0.4657,2.7405-0.4781c3.9863-0.0818,2.977,3.2131,5.9632,5.637
	c5.0079,4.0647,28.4039,9.0753,31.832,3.7993c4.1688,1.1816,9.9976-1.0156,14.1448-2.1594
	c6.3459-1.7501,11.6801,0.9028,17.885,1.2793c0.2996,2.0945,3.8677,1.0969,5.9431,1.0863c5.5447-0.0378,6.573-0.6156,7.9156,4.6647
	c-2.4072,3.2928-3.8983,9.2772-5.4852,13.1942c-1.2957,3.1981-2.4312,2.6173-3.8163,5.2681
	c-1.4978,2.8649-1.7397,6.417-3.3561,9.6544c-2.9209,5.8502-5.694,11.7723-8.4961,17.6798
	c-1.4023,2.9565-2.8124,5.9094-4.2502,8.8489c-1.3586,2.7777-3.9552,4.2073-4.5629,7.2554
	c-0.9342,4.6857-2.7515,9.4569-4.7291,12.8824c-1.8639,0.7153-2.7676,3.1073-3.0786,4.8762
	c-0.4867,2.7687-2.5775,4.0795-2.9229,7.1116c-0.6897,6.0568-4.5314,10.8571-6.8544,16.4711
	c-0.9945,2.4034-0.7842,5.6354-1.8324,7.8284c-1.3387,4.5471-8.0427,6.4801-6.676,12.4419c-0.9378,2.114-2.9482,3.634-4.3113,6.485
	c-3.2465,6.7902-5.1586,14.583-9.2997,20.926c-3.6517,5.5933-7.2614,8.261-11.9532,12.3217
	c-4.2399,3.6697-6.1704,8.3723-10.2811,12.2449c-4.5269,4.2653-8.2382,9.1198-12.6265,13.5183
	c-10.7108,10.7362-20.9117,21.9619-31.2533,33.0498c-16.0171,17.1729-32.2532,34.2743-49.1066,51.2046
	c-6.4249,6.4541-12.4793,12.561-19.029,19.1777c-8.4213,8.5073-16.4595,15.4001-24.7015,23.6733
	c-7.7969,7.8265-15.7155,16.8918-23.4398,24.2028c-7.2514,4.5592-10.5491,12.5439-17.2285,17.3976
	c-4.302,4.6204-16.368,11.9231-14.8956,18.7382c9.9651,0.2399,14.825-1.139,24.2442-3.8999
	c6.0272-1.7666,13.1849-2.8595,18.8891-5.2126c4.2621-1.7582,9.4247-2.6941,13.3978-5.6304
	c1.7673,0.5613,6.9908-2.5792,7.8024-3.9918c0.9703-1.6945,11.8187-8.4219,13.5883-8.3536
	c5.5563,0.2225-0.2889,8.0634-1.0341,8.0099c-1.1417-0.0819-0.5531,5.4846-0.5531,6.7148c3.5424,0.6207,4.8107-1.1031,7.2535-3.3239
	c2.5059,1.4449,1.6336,7.0782,6.3551,4.4573c4.749-2.6365,2.1025-3.1335,5.5543-1.3776c-1.238,4.4916,7.7533-1.1639,8.4344-1.0936
	c0.8591,1.0833-0.3259,4.0841-0.657,5.2369c3.0699-0.0658,4.1166-0.3502,6.2696-2.3124c1.2159-1.1082,2.869-4.8855,4.7149-1.848
	c0.8922,1.4674,0.2488,3.7711-0.4512,5.1907c5.337-0.3625,4.6456-3.3014,10.282-0.6484c4.1713,1.9634,4.5655-3.5479,6.1459-3.6929
	c2.7717-0.2544,3.9153,3.0299,4.1078,3.0668c8.0868,1.5491,12.7543-11.8693,16.5043-16.8491
	c3.8652-5.1331,7.8757-10.1542,11.8122-15.2323c3.5181-4.5383,8.9706-9.2755,11.7389-14.0168
	c10.756-18.4221,28.4055-35.2642,41.2289-53.2073c6.3382-8.865,16.2142-16.9491,21.4384-26.2654
	c2.8805-5.1365,6.7469-5.8223,10.65-9.3828c2.4675-0.0327,6.9618-1.7292,7.7975-3.0936c7.8003,1.2601,16.8459-8.6544,24.464-8.6544
	c4.4449,0,8.7303-4.0864,12.807-5.5859c2.2603-0.8314,4.8237-1.9655,6.1757-4.0983c1.8916-1.288,4.2959-0.6602,5.9379-2.3887
	c2.0552-2.1647,5.6885-4.209,8.641-5.8032c2.7917-1.5073,10.1451-4.5082,11.4067-7.4011c2.4795,0.7159,6.4657-3.0079,8.7748-4.0107
	c3.1411-1.364,5.907-5.1078,8.9607-5.7839c7.4529-1.6501,13.1854-9.9552,20.6429-11.8173c3.8418-0.9592,9.177-4.4647,12.1182-7.1926
	c4.4098-4.0901,7.1578-5.2645,10.3228-10.4619c3.174-5.2122,5.7129-6.2596,10.2324-1.5187
	c3.8401,4.0283,7.4933,8.4578,12.4332,11.2015c1.7142,1.5764,3.1682,4.2585,5.2179,5.5825
	c3.4985,2.2599,2.2751,2.1371,2.2919,6.4989c0.0066,1.7184,0.269,3.676,0.0804,5.405c-0.1644,1.509-1.027,7.9506-0.9634,11.0596
	c0.5687,2.6711,1.4325,3.4656,2.6909,6.7623c3.7721,9.8823,11.6041,12.1172,19.3671,17.2374
	c4.0559,2.6752,11.1294,3.8706,15.7332,4.4811c7.538,1.1418,14.5886,3.0222,23.1255,4.1398
	c27.3182,3.576,52.8138,5.9423,79.4968,6.3569c12.8171,0.1992,22.8419,1.4739,35.4794,0.9036
	c6.4792-0.2924,11.6675,0.5641,18.1914,0.5044c11.3494,1.6055-0.1744,9.3522-2.8448,14.1108
	c-3.0371,5.4121-7.7753,8.3933-12.4188,12.8652c-1.6626,1.5682-3.2262,3.2295-4.6909,4.9839
	c-4.4673,5.4742-1.2352,0.5341-3.8293,2.6808c-2.7637,2.2871-7.1506,5.4709-8.8768,8.7115
	c-6.5997,1.7803-5.8926,8.9512-6.3727,14.0061c-0.4199,4.405-1.1488,8.6522-1.5975,12.9489
	c-3.2407,1.9221-0.2734,9.2083-1.1403,12.2589c1.4078,0.1503,5.865,8.0068,7.5233,9.6589c1.4119,1.4065,5.6559,4.8864,7.5015,5.0527
	c2.2186,3.0475,6.1447-2.7439,2.2448-3.5206c-3.2556-3.7212-5.8262-9.4396-5.7058-14.2784c0.12-4.8223,1.5592-5.6083,2.6602-10.0881
	c1.8469-7.5472,16.0011-4.4954,14.6807-14.9324c0.782-0.7827,2.3124-5.1141,3.7202-7.4994
	c2.4016-4.0688,6.0081-6.5486,9.3948-9.7917c6.5118-6.2358,14.8158-17.858,24.9795-17.4022
	c12.2039,0.5474,20.5444,8.4531,30.2789,15.451c3.9032,2.806,8.4501,7.7314,9.4153,12.1769
	c1.373,6.3246,4.7832,8.3309,8.2373,12.3075c0.9274,1.067,2.5912,1.6256,3.9613,1.4474c1.0299,2.0913,2.2061,4.1147,3.1123,6.2661
	c-1.1248,7.5776,0.0752,12.6339-3.9252,19.7129c-2.8329,5.0129-4.0081,9.8687,3.244,4.7424
	c4.5533-3.2185,8.2765-7.6506,10.3079-12.8717c1.5524-3.9896,2.6818-6.3308,3.0264-10.4801
	c0.1918-2.3076,3.1079-1.4668,4.8138-1.5571c2.9354-0.1554,3.1052,1.1306,4.6516,3.4679
	c-0.7639,7.1611,0.3253,12.022-3.9465,18.3965c-2.4294,3.6255-4.194,3.7021-5.2374,8.3137
	c4.2156-0.2947,12.0739-4.2104,14.9141-7.5532c3.7883-4.4587,4.8545-9.6697,6.4556-15.0789
	c3.9724-2.5229-1.4465-9.2986-1.7834-12.4213c2.5621-1.8077,0.974-4.557-0.5541-6.2222c-2.6493-2.8873-1.176-4.1669-1.0431-7.9586
	c0.074-2.1091-3.6729-7.7825-4.8304-9.6549c-1.3308-2.1478-7.6166-3.6962-9.939-5.1694c-4.4036-2.7936-8.4991-3.4883-12.5802-7.29
	c-5.8562-5.4552-6.8153-17.2749-6.8444-24.5692c-0.0287-7.1727-1.4172-15.9764,5.8741-19.1915
	c5.934-2.6166,12.6566-4.8691,18.5079-2.4641c4.4568,1.8368,5.2191,7.9617,9.7827,10.1875
	c3.8779,6.2585,8.4795,12.0221,12.5697,18.137c0.5226,0.8645,1.42,3.5635,2.5059,4.8705c2.6554,3.1962-0.0428,8.4932,1.0699,12.8273
	c1.3536,5.2723,10.1647,9.214,9.619,16.4163c-0.4103,5.4172,0.4951,6.713-2.7742,11.4802c-1.0594,1.545-8.6755,8.3074-8.6056,9.4397
	c-1.1222,4.6346,22.8036-1.6608,22.8036-0.1648c0-0.1726,4.1943-2.1366,4.6029-2.2979c5.0018-1.9738,8.6815-6.2855,10.9573-11.0397
	c3.567-7.4513,2.3092-13.9791,3.1995-22.0222c1.2225-11.0376-0.7904-15.2897-10.2173-22.0199
	c-7.6989-5.5-15.1504-15.6543-19.5632-23.9297c-1.2294-2.3054-7.8344-7.9818-6.6294-10.8287
	c1.5264-3.6066,11.7734-4.5829,14.9871-5.8494c12.4324-4.8984,25.5016-8.2628,37.8507-13.6338
	c4.3307-0.274,7.2087-1.9924,10.9749-3.6976c1.7075,0,9.7825-2.5132,11.6035-3.4186c8.3472-4.1501,17.4279-7.8492,26.064-12.3906
	c13.3442-7.0172,29.3219-19.0302,42.1174-29.1602c3.4297-2.7131,7.3333-5.1221,10.9161-7.7596
	c2.9269-2.1545,10.4862-10.0806,13.7579-10.0806c1.9567,0,7.7418-5.3776,8.9473-7.0419c2.2969-3.1565,7.1743-4.1978,9.5863-7.2197
	c2.2194-2.7806,4.9388-3.802,7.8422-5.9027c1.9535-1.4135,1.2479-2.8169,2.8036-4.1908c1.7463,0.5378,3.4423-0.7313,4.3494-2.1217
	c1.9569-2.9999,5.9321-3.2695,6.9745-7.167c2.7395-0.8379,10.1276-6.2836,11.5579-8.8027c1.899-3.3448,5.3378-3.1254,7.5735-6.8988
	c2.4946-1.1339,8.9358-6.2451,9.5089-8.7784c3.6493-1.5221,5.9915-5.3921,8.486-8.2729c4.5564-4.6102,9.4749-9.1422,14.1674-13.6642
	c15.2031-14.6506,24.7002-35.2578,37.7815-52.1888c5.6842-7.3569,8.4414-18.5939,11.5709-27.1747
	c4.1447-11.3646,8.3876-22.6355,11.6232-33.7601c9.4081-32.3477,26.3667-62.364,28.2958-96.8119
	c2.1735-11.9537,3.6019-32.3988,13.9337-40.6818c3.5438-2.8411,3.8058-5.2313,8.3645-6.3728
	c5.2303-1.3076,10.3217,0.0011,15.6555-0.7192c-0.0482,0.0065,1.5009-1.0937,3.2487-1.0826
	c2.8073,0.0178,5.6145,0.0356,8.4218,0.0535c-0.1014-0.3777-0.2028-0.7556-0.3042-1.1334c1.9429,0.0151,8.0342,2.5304,8.7861-0.6736
	c5.8999-0.6093,11.609-2.2783,17.3522-3.674c8.9875-2.1843,17.8411-1.6553,26.1986,2.5928
	c5.2949,2.6901,10.8801,4.4875,14.5969,8.2711c1.6449,1.6757,3.3008,1.3369,4.8276,2.8916c0.689,0.7018,5.3307,3.4916,6.2394,3.8723
	c2.0414,0.8552,24.8208,11.8736,24.8097,12.245c-0.0896,2.976,20.5095,8.7866,23.9407,8.7184
	c0.6423-4.3949-2.4692-5.9066-3.676-9.6642c-2.8542-8.8871-4.6362-19.5768-10.0513-27.1573
	c1.781-3.7216,13.0896,2.3819,17.075,4.1395C2064.0266,966.693,2085.5037,977.7892,2076.835,964.1523
	C2076.1858,962.4855,2077.6006,965.3567,2076.835,964.1523z"/>
</svg>
