<?xml version="1.0" encoding="utf-8"?>
<svg version="1.1" id="Layer_1" xmlns="http://www.w3.org/2000/svg" xmlns:xlink="http://www.w3.org/1999/xlink" x="0px" y="0px" viewBox="0 0 864 864" style="enable-background:new 0 0 864 864;" xml:space="preserve">
<style type="text/css">
	.st0{fill:#333;}
</style>
<g>
	<path class="st0" fill="#333" d="M713.5,683.6c-0.4-0.5-0.8-1.3-1.2-1.3c-0.7,0.1-0.8,0.9-0.8,1.6c0,0.6,0.3,1.5-0.6,1.7
		c-0.7,0.2-1.4-0.1-2-0.7c-2.2-2.3-4.8-4.3-6.6-6.8c-1.1-1.5-3.2-0.3-4-2.5c-0.8-2.1-2.5-4.3-4-5.8c-2.5-2.5-3.2-5.8-5.3-8.4
		c-2.4-2.8-3.1-6.5-4.1-10c-0.4-1.6-1.1-1.4-2.3-1.2c-4.2,0.8-7.7,3.2-11.5,5c-3.1,1.4-6.9,0.1-7.8-3.2c-0.7-2.4-2.1-4.8,0.3-7.4
		c0.9-1,1.3-1.6,2.6-1.7c4.6-0.3,9.1-0.7,13.7-1.1c1.4-0.1,2-0.7,1.4-2.2c-2.2-5.3-3.2-10.9-3.4-16.7c-0.1-3,0.1-6-0.3-9.1
		c-0.1-1-0.6-1.7-0.7-2.7c0-0.9-0.8-0.6-1.3-0.6c-0.8-0.1-0.9,0.3-1,1c0,0.4,1.1,1-0.1,1.2c-0.7,0.1-1.9,0.4-2-0.3
		c-0.4-2.2-3.9-1.4-3.7-4c-1.9-0.1-2.3-2.4-3.4-2.8c-2.6-0.9-3.3-3.2-4.9-4.9c-2.1-2.2-3.7-5-5.6-7.2c-3.1-3.4-5.1-7.2-6.9-11.3
		c-0.4-0.9-0.9-0.8-1.5-0.8c-4,0.2-7.4,1.6-10,4.8c-1.7,2.1-3.1,2.4-5.4,0.9c-1.9-1.2-3.8-2.2-4.8-4.3s-0.6-3.9-0.5-6.1
		c0.2-4.4,2.8-3.2,5-3.2c4.5,0,8.8-0.6,12.9-2.5c0.5-0.3,2.1-0.3,0.8-1.8c-2.7-3.2-2.8-7.2-3.5-11.1c-0.3-1.6,0.5-3.4-0.5-4.9
		c-0.1-0.1-0.1-0.4,0-0.5c2.7-3.4-0.1-7.3,1-11c1.5-5.5,3-11,5.5-16.1c0.5-1.1,1.5-2.5,2.5-3.7c0.4,1.9-0.5,4.3,1.6,5
		c2.4,0.8,0.5-2.3,1.9-2.7c0.2,0.1,0.4,0.2,0.4,0.3c-0.3,7.7,2.5,14.8,5,21.9c1.3,3.8,2,7.7,1.9,11.7c0,1.8,0.5,3.5,0.8,5.2
		c0.5,2.2,3.3,3.9,6.4,4.1c0.7,0,1.3,0.1,2,0c2.8-0.3,5.2,0.2,6.5,3.3c-4,0.7-6.6,4.1-10,6.1c-1.1,0.6-0.1,1.3,0,2
		c0.6,3.1,2.8,5.5,4,8.3c2.4,5.7,2.8,11.9,4.5,17.8c0.1,0.3-0.1,0.6,0.1,0.8c0.9,1.1,0.2,3.6,1.8,3.6c1.8,0.1,1.4-2.4,1.9-3.7
		c1-2.2,0.8-5,1.4-7.5c0.5-1.9,0.2-4.1,1.8-5.7c1.6,0.6,1,3.1,3.1,3.3c0.1-1.3,0.1-2.4,0.2-4.3c2.9,8.9,7.3,16.5,10.6,24.6
		c1.3,3.3,1.6,7,1.7,10.6c0.1,2,0.5,3.9,0.8,5.8c0.3,2.2,1.8,3.3,4.1,3.1c1.8-0.2,3.7,0.2,5.6-0.5c0.9-0.3,2.1-0.2,3.1,0.1
		c0.9,0.3,1.9,1,2.2,1.7c0.3,0.9-1.1,1.2-1.8,1.4c-3.6,1.4-5.1,5.1-8.4,6.9c-0.7,0.3-0.5,1.1-0.1,1.8c1.4,2.3,2,4.9,3.6,7
		c2.9,3.9,3.8,8.6,4.7,13.3c0.8,4.6,1.7,9.2,2.6,13.8c0.2,0.7,0.1,1.5,0.3,2.2C713.7,683.3,713.6,683.4,713.5,683.6z"/>
	<path class="st0" d="M816.6,505.3c-1.6,0.3-1.9-2.6-3.9-1.5c0.9,1.7,1.8,3.5,2.8,5.4c-1.7-0.1-2.1-2-3.5-2.2
		c-1.4,0.8,0.6,1.8-0.1,2.7c-1.2,0.2-1.3-0.7-1.7-1.3c-0.1-0.2-1-2.8-1.6,0c-0.2,0.8-1,0.2-1.3-0.2c-2.4-3.6-6.6-4.9-10-7.2
		c-1.7-1.2-3.1-2.2-3.4-4.2c-0.2-1.1-0.3-1.8-1.7-1.1c-0.4,0.2-0.9,0.1-1.3-0.3c-2-2.1-4.5-3.5-5.8-6.5c-0.9-2.3-3.5-3.8-5.1-6
		c-2.4-3.4-4.1-7.2-5.5-11.1c-0.2-0.6-0.4-1.4-0.3-2.1c0.2-3.1,0-3.3-3-2.1c-4.7,1.8-9.5,3.4-13.7,6.1c-2.7,1.7-5,1.2-7-0.7
		c-1.7-1.5-2.3-3.8-2.1-6c0.6-5,0.8-4.7,6-5.9c4.7-1.1,9.6-1.3,14.2-3.2c1.5-0.6,3.1-0.3,0.7-2.4c-1.8-1.6-2.3-4.3-2.8-6.7
		c-1-4.6-0.7-9.2-0.9-13.9c-0.1-3.8,0.6-7.6,0-11.4c-0.2-1.4,0.7-3.5,1.2-5.2c0.3-1,0.9-1.8,0.4-2.9c-0.7-1.6,1.8-1.7,1.6-2.8
		c-0.4-3.1,2.3-5.5,1.1-8.6c1.4-0.2,0.9,1.6,2.3,1.3c0.2-1.4,0.3-2.9-0.4-4.8c1.6,0.9,1,2.8,2.7,3.4c0.1-1.7,0.1-3.1,0.2-5
		c1.6,2.2,1.4,4.7,2.7,6.7c1.4-1.7-0.4-4.3,1.5-5.6c0.3,10.5,5.2,19.9,7.9,29.8c0.8,2.8,1.7,5.5,1.4,8.4c-0.4,3.4,1.1,6.6,1.1,9.9
		c0,1.1,1.2,1.4,1.4,1.3c3-1.3,6.2,1.2,9.4-0.8c1.9-1.2,4.2,0.4,6.2,2.1c-5.5,1.5-6.5,7.9-11.2,10.5c-0.9,0.5-0.8,1.2-0.3,2.2
		c1.2,2.6,2.7,5.1,4.5,7.2c3.6,3.9,4.9,8.9,7.1,13.5c2.6,5.5,4.4,11.4,7.4,16.8c0.9,1.6,2.2,2.8,3.3,4.1
		C817,505,816.8,505.1,816.6,505.3z"/>
	<path class="st0" d="M754.4,181.6c-4.2-0.6-7.2-3.4-10.6-5.7c-3.8-2.5-6.7-6-10.5-8.2c-1.5-0.9-1.3-2.2-2.3-3.2
		c-5.8-5.8-10.8-12.2-13.2-20.2c-0.7-2.4-2.4-1.3-3.7-0.7c-3.9,1.7-7.2,4.3-10.7,6.7c-3.4,2.3-5.2,1.9-7.1-1.8
		c-1.1-2.3-2.2-4.6-2.7-7.1s0.5-4.3,2.9-4.6c4.2-0.5,8.3-1.4,12.5-2.2c0.8-0.2,1.6-0.5,2.3-0.8c1.8-0.6,2-1.4,1.1-3.3
		c-2.8-5.7-4.6-11.8-4.2-18.1c0.3-4.9-1.1-9.6,0.2-14.6c0.7-2.5,1.2-5.5,0.9-8.1c-0.4-3.9,2.6-7.3,1.6-11.2c-0.1-0.3,0-1,0.5-0.8
		c2.1,0.9,0.6-1.3,1.3-1.5c1.6-0.1,0.4,2.5,2.1,2c1.4-0.4,0.2-1.9,1-2.8c1.4,2,1.1,4.6,2,6.7c2.6,5.9,5.5,11.5,8,17.4
		c2.5,6,5,11.8,5,18.4c0,1.8,1.2,3.4,1.2,5.4c0,0.9,1.1,2,2.3,1.5c1.5-0.6,3.1,0,4.4-0.6c2.9-1.3,5.6-1.5,8.6,0.6
		c-4.9,1.9-5.4,7.6-9.5,10.3c-0.8,0.5-0.7,1-0.2,2c2.2,5.1,6.3,9,8.6,14c3.2,7,5.7,14.2,7.8,21.6c0.8,2.7,2.3,5.1,3.4,7.2
		c-0.6,1.8-2.9-3.2-2.7,1.1C754.6,181.3,754.5,181.5,754.4,181.6z"/>
	<path class="st0" d="M124.9,492.4c-1.5-0.2-3.2-1.1-2.9,1.6c0.1,0.6,0,1-0.9,0.9c-2.9-0.4-5-1.5-5.3-4.7c-0.2-1.8-1.3-2.8-2.9-3.5
		c-2.8-1.2-4.1-4-6-6.1c-4.4-4.8-8.2-9.9-11.7-15.4c-1.9-3-3.1-6.1-3.9-9.5c-0.9-3.7-1.2-4-4.5-2.5c-4.2,1.9-8.3,3.8-11.7,7.1
		c-2.2,2.1-5.5,1.5-8-1.8c-1.2-1.7-2.2-3.9-2.4-5.9c-0.7-6,2.2-6.1,6.9-7c4.8-0.9,9.7-0.9,14.3-2.8c1.7-0.7,1.6-1.7,0.6-2.8
		c-2.9-2.8-3.5-6.4-4.2-10s-0.3-7.3-0.5-10.9c-0.1-3.5,0.3-7.1,0.5-10.7c1,0.1,2.1,0.9,2.7-0.1c0.5-0.9-0.4-1.5-1-2.1
		c-2.9-3.1-1.2-6.7-1-10.1c0.1-0.7,0.6-0.5,0.7-0.4c1.5,0.9,2.6-0.7,4-0.7c1.7,0-0.1-2.1,1.3-2.7c1.1,1.1,1.1,2.9,1.5,4.3
		c2.1,6.1,6.1,11,9.2,16.5c2,3.6,5,6.9,5.5,11.2c0.3,2.5-0.1,5,0.8,7.4c0.8,2.1,2.1,3.2,4.2,3.2c2.5,0,5,0.5,7.5-0.5
		s4.5-0.3,5.9,2.1c-2.7,0.8-4.6,2.8-6.6,4.9c-0.4,0.4-0.9,0.8-1.2,1.2c-1.2,1.5-4,1.9-3.9,4c0.1,2.6,1.4,5.2,3.2,7.1
		c3.3,3.7,3.6,8.3,4.6,12.7c1,4.4,1.5,8.9,2,13.4C122.2,484,123.4,488.2,124.9,492.4z"/>
	<path class="st0" d="M308.5,317c-0.6,8.2,3.4,14.8,6.5,21.6c2.3,4.8,4.1,9.5,3.8,15.1c-0.3,6.4,3.9,9.4,10.5,7.9
		c2.8-0.6,4.7,0.5,5.8,3.2c-4,0.5-5.8,4.4-9,6.1c-2.8,1.5-3.2,3.7-2,6.4c0.8,1.7,1.4,3.6,2.4,5.2c1.6,2.6,2.2,5.5,2.4,8.4
		c0.4,4.4,1.4,8.6,1.8,13c0.5,5.9,1.9,11.5,5.3,16.9c-1.9-0.3-2.4-2-3.7-2.4c-1,1.3,0,2.5,0.2,3.8c-0.9,0.7-2.6-1.5-3.1,0.7
		c-0.1,0.3-0.8-0.1-1.1-0.5c-1.8-1.9-3.7-3.8-5.4-5.8c-1.2-1.5-2.8-2.7-4.1-4c-3.9-3.7-7.1-8.2-8.5-13.1c-2-7-6.6-13-6.8-20.6
		c-0.1-2.7-2.6-2.2-4.4-1.7c-4.2,1.1-7.8,3.5-11.7,5.3c-3.5,1.6-7.2-0.3-8.3-4.1c-0.7-2.4-0.8-4.7,0.3-7c0.3-0.5,0.4-1,0.3-1.6
		c-0.4-1.9,0.4-2.5,2.2-2.7c2.9-0.3,5.7,0.8,8.7,0.6c2.6-0.2,5.2-0.4,7.7-1.1c1.8-0.5,2.3-1.6,1.7-3.3c-1.6-5-2.4-10.1-2.1-15.3
		c0.2-2.5-1.5-4.6-1.2-7.3c0.3-3.8,0.6-7.6,1.5-11.4c0.7-3.3,2.8-6.2,2.7-9.7c0-0.5,0.1-2.6,1.8-0.9c0.5,0.5,1.3,0.4,1.7-0.3
		c0.5-0.8,0.5-1.2,1.3-0.1C306.8,320.1,307.3,317.5,308.5,317z"/>
	<path class="st0" d="M119.8,213.6c1-0.2,2.4,0,3.9,0.7c0.1-2.1-2.5-1.8-2.6-3.5c4.3,0.7,8.4,2.1,12.4,3.8c7.2,3,14.1,6.5,20.4,11.1
		c3.6,2.6,7.3,5.6,5.1,11.1c-0.4,1.2-0.2,2.6,0,3.9c0.2,1.7,0.7,2.7,3,2.8c2.9,0.2,5.7,1,8.6,0.2c2.7-0.7,3.8,1.5,5.2,3
		c-3,1.4-6.1,2.7-7.9,5.8c-0.4,0.7-1.3,1.1-2,1.5c-2,1.2-1.8,2.5-0.4,4c0.2,0.2,0.4,0.4,0.6,0.6c4.7,3.3,4.8,7.5,3.1,12.6
		c-3.3,9.3-7.7,17.9-13.2,26.1c-1.5,2.2-3.6,2.5-6,2.1c-0.6-0.1-0.8-0.3-0.8-0.9c0.3-4.5,0.4-8.9,0.4-13.4c0-7.3-1.2-14.5-7-19.9
		c-0.2-0.2-0.5-0.4-0.6-0.6c-1.3-4.3-3.9-2.2-6-1.1c-3.7,2-7.3,4.2-10.9,6.3c-0.9,0.5-1.5,0.4-2.6-0.2c-4.7-2.5-7.1-10.9-6-15.7
		c0.6-2.7,2.5-3.5,5.8-2.8c4.7,1.1,9.3,0.3,13.9-0.1c0.5,0,1.2-0.4,0.9-1c-1.5-2.8-0.8-5.8-0.9-8.7c-0.2-4.4-1.5-8.5-4.6-11.7
		c-3-3.1-5.3-6.8-8.4-9.9C121.6,218.3,119,216.7,119.8,213.6z"/>
	<path class="st0" d="M279.1,633.9c0.8,9.2,5.9,16.8,8.9,25.1c0.7,1.9,1.3,3.8,1.2,5.9c-0.1,2.1,0.3,4.1,1,6.2
		c0.8,2.5,2.4,3.3,4.6,3.4c1.7,0.1,3.5,0,5.3-0.4c2.9-0.7,5.8-0.2,7,3.1c-2.6,0.5-4.7,1.6-6.6,3.7c-1.3,1.5-2.1,3.5-4.2,4.3
		c-1.2,0.5-0.5,1.4-0.3,2.1c0.7,2.7,1.9,5.1,3.4,7.4c3,4.6,3.6,9.9,5,14.9c1.6,5.6,2.5,11.4,5.2,16.7c0.4,0.8,1.9,2-0.6,2.1
		c-0.2,0-0.6,0.4-0.5,0.5c1.4,2.7-2,2.5-2.5,4.2c-0.3,1-1.4,0.3-2-0.3c-5-5.2-11.1-9.1-15.3-15.2c-0.7-1.1-1.2-2.2-1.9-3.3
		c-4-6.3-8.5-12.3-9.7-20c-0.5-2.9-2-3.4-4.6-2c-3.8,1.9-6.7,5-9.8,7.6c-2.7,2.3-3.9,2.3-6.3-0.5c-0.8-0.9-1.7-1.7-2.6-2.6
		c-1.5-1.6-2.8-3.5-2.2-5.7c0.8-2.7-1.5-5.2,0.2-7.9c0.7-1.1,1.3-1.6,2.6-1.5c4.3,0.1,8.5,0,12.8,0c0.8,0,1.5,0,2.3-0.1
		c3.2-0.8,3.2-1.1,1.6-4.1c-1.7-3.1-3-6.5-3-10.1c0-4.1-0.2-8.2-0.5-12.3c-0.2-2.7,0.7-5.5,0.9-8.3c0.2-2.7,1.4-5.2,2-7.8
		c0.4-2.1,2.1-3.5,4.1-4.4c0.8-0.4,1.6-0.4,1.9,0.7c0.3,0.8,0.1,2.2,1.4,2s1-1.6,1-2.6C278.9,634.6,279,634.3,279.1,633.9z"/>
	<path class="st0" d="M351.7,714.1c0.9-0.8,1.9,1.2,2.7,0c0.7-1.1-0.9-1.3-1.1-2.3c12.1,1.7,22.9,6.3,32.9,12.9
		c3,1.9,5.5,4.2,4.3,8.7c-0.5,1.8,0.2,4.3,1.1,6.1c1,1.8,3.5,1.2,5.3,1.6c1.7,0.4,3.6,0.1,5.2-0.6c3.2-1.3,5.1,0.2,6.8,2.7
		c-2.9,0.7-5.1,2.6-7.3,4.6c-1.3,1.2-2.3,2.7-4,3.5c-2.2,1.1-2.1,2.8-0.7,4.2c3,2.9,2.7,5.9,1.4,9.6c-3.2,8.9-7.5,17.3-12.9,25
		c-0.7,0.9-1.4,2.1-3,1.8c-1.4-0.3-1.8,1.2-2.8,1.6c-2-3.1-1.1-6.5-1.3-9.8c-0.3-5.2-0.3-10.5,0.5-15.8c0.5-3.7-2.8-5.6-4-8.6
		c-0.3-0.8-1.5-0.5-2.3-0.2c-3.7,1.5-7.2,3.5-10.6,5.6c-6,3.8-7.3,3.6-10.4-2.6c-1.8-3.8-2.6-7.7-0.7-11.9c0.6-1.4,1.2-1.7,2.4-1.7
		c3.5,0,7-0.1,10.5,0.1c1.9,0.1,3.6-0.7,5.5-0.7c0.6,0,2-0.2,1.2-2c-0.7-1.3-0.9-3.1-0.7-4.6c0.8-4.4-1.8-7.2-4.5-9.9
		c-4.4-4.3-8.2-9.3-12.8-13.4c-0.4-0.3-1.7-0.6,0.1-1.5C354.7,715.5,351.2,715.4,351.7,714.1z"/>
	<path class="st0" d="M597.4,407.3c-2.6,1.1-4.3,3.5-6.4,5.6c-0.1,0.1,0,0.2-0.1,0.3c-0.3,1.6-3,1.5-2.7,2.8
		c0.6,2.2,1.6,4.6,3.2,6.3c4.3,4.8,5.4,10.6,6.9,16.5c1.2,4.8,2.6,9.6,3.9,14.5c-1.5,0.6-1.3-1.3-2.4-1.6c-0.6,1-0.2,2.1-0.4,3.2
		c-1,0.1-1.7-2.5-3-0.5c-0.1,0.1-0.7,0-0.7-0.1c-0.4-1.7-2-1.8-3-2.7c-4.7-3.9-10.1-7.2-13.5-12.3c-3-4.6-7.3-8.5-8.6-14.2
		c-0.3-1.4-1.3-2.4-1.4-3.9c0-0.7-0.7-0.7-1.6-0.5c-4.7,0.9-8.5,3.7-12.8,5.6c-3.1,1.4-7.2-0.6-7.4-4c-0.1-1.1-0.4-2.2-0.7-3.2
		c-1-3.6,0.6-6,4.2-6.1c4.5-0.1,9-0.5,13.5-1.7c1.3-0.3,2-0.8,1.2-2.5c-2.8-5.3-3.6-11-2.9-17c0.1-0.7,0.2-1.4,0-2
		c-1.4-4.4,0.1-8.7,0.5-13c0.3-3.7,1.3-7.3,2.1-10.8c0.4-2,0-3.9,0.4-5.7c1.3,0.1,0.9,1.7,2.1,1.9c0-1.2,0-2.4,0-4
		c1.7,1.2,1.7,3.1,2.9,4.2c1.6-1.6-1.1-3.3,0.6-4.8c1.7,4.6,3.4,9,5,13.5c1.6,4.3,3.4,8.7,4.9,13c0.8,2.3,1.4,4.7,1.4,7.3
		c0.1,3.6,0.6,7.2,1.1,10.8c0.3,1.8,1.7,2.6,3.4,2.8c1.1,0.1,2.4,0.3,3.4,0C593.3,404.2,595.7,404.6,597.4,407.3z"/>
	<path class="st0" d="M570.4,555.1c-3.7-0.4-6.2,1.3-8.4,3.8c-0.4,0.5-0.9,0.9-1.4,1.4c-3.5,3.5-3.7,3.6-1.1,8
		c5,8.4,6.4,17.5,6.5,27c-1.3,0.3-0.9-1.7-2.2-1.4c-1.5,0.3-0.1,1.8-1.3,2.3c-0.7-1.1-1.3-2-3.2-0.9c-0.8,0.5-3.5-1.6-4.8-3.1
		c-2.1-2.3-4.5-4.2-6.8-6.1c-5.2-4.3-8.2-9.6-9.6-16.1c-0.4-1.7-1.1-2.5-3.2-1.3c-4.2,2.3-7.7,5.3-11.6,7.9c-1.4,0.9-2.7,1-3.5,0.1
		c-3-3.2-6-6.6-5.4-11.5c0.1-0.7-0.2-1.1-0.2-1.7c-0.3-3.3,1.1-4.9,4.4-4.9c4.4,0,8.9-0.1,13.3,0c2.5,0.1,2.4-1.2,1.6-2.7
		c-2.2-4.4-2.9-9.1-2.8-13.9c0-1.6-1.1-3-1.3-4.7c-0.3-2.4,1-4.1,1-6.3c0-2.6,1.2-5.3,0.7-7.8c-0.5-2.7,0.5-5,0.5-7.5
		c0-0.5,0.1-1.1,0.3-1.1c2.8,0.4,1.1-2.2,2-3c1-0.2,0.8,1.6,2,1.1c1.3-0.6,0-1.9,0.9-2.7c4.7,8.2,9.9,16.2,12.9,25.2
		c1.3,4,1.2,8.3,2.7,12.3c1.2,3.1,3.6,5.1,6.8,4.2c1.5-0.4,3.1-0.1,4.6-0.9c1.2-0.6,3-0.1,3.7,1.1
		C568.2,553.2,569.2,554.2,570.4,555.1z"/>
	<path class="st0" d="M792.2,769.4c-3.8,0.8-6.8,2.8-9.4,5.4c-0.5,0.5-0.8,0.9-1.6,1.1c-3.3,0.7-2.7,2.6-1.5,4.8
		c3.7,6.5,3.5,13.3,1.2,20.2c-0.6,1.8-0.9,4.1-3.8,3.5c-0.3-0.1-0.8,0.8-1.2,1.1c-1.3,1-2.7,0.9-3.5-0.5c-2.5-4.3-6.6-7.3-9.3-11.5
		c-1.8-2.8-2.6-6-3.7-9c-1.2-3.7-0.6-4.6-4.7-2.4c-3.2,1.7-6.4,3.5-9.5,5.4c-4.3,2.6-6.7,2.1-8.5-2.6c-1-2.7-2.1-5.5-1.3-8.7
		c0.5-2.2,1.5-3.2,3.8-3.2c5.3,0,10.6,0,15.7-1.6c1.4-0.4,1.3-0.9,1.1-2c-0.6-3.2-2.3-6.2-2.4-9.6c0-2.1-1.6-4.1-1.4-5.7
		c0.3-3-0.7-5.8-0.3-8.8c0.5-4.2,0.7-8.4,1.7-12.6c0.3-1.5,0.2-3.2-0.3-4.6c-0.6-1.8,0.6-3.3,0.5-4.9c0.8,0,1.4-2.7,2.6-0.2
		c0.3,0.7,1.5,2.6,2-0.2c0.1-0.7,0.6-0.3,1.1,0.2c5.8,6.9,9.4,15,13,23.1c1.7,3.8,0.8,8.1,1.6,12c0.4,1.9,1,3.7,1.4,5.6
		c0.1,0.4,0.2,1.3,0.9,1.3c3.2-0.2,6.1,1.8,9.5,0.8c1.4-0.4,3.8,0,4.7,2.1C790.8,768.6,791.5,768.8,792.2,769.4z"/>
	<path class="st0" d="M71.1,131.1c2.1,0.3,3.7-0.8,5.4-1.4c1.6-0.5,2.9-0.2,4.1,0.8c0.6,0.5,1.6,1,1.5,1.9c-0.1,1-1.2,0.8-2,1.1
		c-2.4,0.8-3.2,3.2-4.7,5c-0.5,0.6-1,1.5-1.6,1.8c-2.5,1.1-1.6,2.3-0.5,4c2.3,3.4,6,5.6,7.8,9.5c2.1,4.6,2.8,9.6,4,14.5
		c0.7,3.1,0.6,6.4,1.6,9.5c0.2,0.7,0.5,2-1.2,1.2c-0.4-0.2-0.8,0-1,0.6c-0.9,2.5-2.9,2.8-4.5,0.6c-4.3-6.2-9.4-11.8-15-16.8
		c-4.6-4.1-8.2-8.7-11.4-13.8c-1.4-2.2-3.6-2.4-7.2-1c-3.6,1.4-7.1,2.9-10.6,4.4c-1.7,0.7-3.2,1.2-4.6-0.4c-1.7-1.9-2.7-3.9-2.1-6.5
		c0.5-2.1,2.1-2.7,4-2.9c3.5-0.4,6.6-2.1,9.9-3c6-1.8,6.9-0.7,4.9-8.6c-0.9-3.6-1-7.4-0.1-11c0.9-3.8-0.1-7.6-0.1-11.4
		c0-4.5,0.7-9.1,0.1-13.6c-0.2-1.5,0.1-2.9,1.1-4.1c1.4,1.3,3.6-0.5,5.2,1.9c5.1,7.5,10.6,14.7,13.2,23.6c0.4,1.4,0.7,3,0.2,4.1
		c-1.2,3,0,5.7,0.2,8.5C67.7,131.3,69.6,131.3,71.1,131.1z"/>
	<path class="st0" d="M428.1,418.4c1.3,8.5,6.3,15.1,10.4,22.1c1.4,2.3,2.3,4.7,2.5,7.4c0.2,4.3,2.4,6.6,6.6,6.7
		c1.7,0.1,3.5,0.3,5.3-0.4c2.2-0.8,4,0.4,5.7,2c-4.2,1.3-6.6,5-10.1,7.2c-0.9,0.6-0.4,1.1-0.1,1.9c1.1,2.6,2.8,4.7,4.6,6.9
		c3.4,3.9,4.2,9,6.3,13.6c2.2,4.6,2.9,9.8,6.1,14c0.2,0.3,0.7,0.9,0.1,1.5c-1.3,1.3-1.3,1.3-0.6,3c-3.3,1.2-5.3-2-8.1-2.5
		c-1.4-0.2-1.6-2-2.8-2.9c-1.9-1.3-4.3-1.6-6-3.2c-1-1-0.7-3.1-1.8-3.1c-2.1-0.1-2.4-1.7-3.2-2.8c-2.5-3.8-6.3-6.7-8.5-10.7
		c-1.3-2.3-3-4.6-3.4-7.2c-0.5-2.8-2.1-2.1-3.4-1.7c-3.4,1.2-6.8,2.5-9.9,4.5c-2,1.3-4,2.7-6.8,1.4c-2.9-1.4-4-3.7-2.6-6.7
		c0.2-0.4,0.4-1,0.2-1.3c-1.4-2.9,1-2.9,2.6-3.1c4.4-0.7,8.9-1.3,13-3.2c1.4-0.7,1.8-1.3,1-2.7c-1.7-3-2.6-6.4-3.8-9.6
		c-0.1-0.3-0.3-0.8-0.2-1.1c0.9-2.9-1.2-5.1-1.7-7.6c-0.5-2.3-0.3-4.8-1.1-7.1c-0.3-0.7,1.7-0.4,1.7-2.2c0.1-3.3,0.3-6.7,2.1-9.8
		c0.8-1.5,1.1-2.9,3.3-1.3C426.5,421.1,428.2,420.8,428.1,418.4z"/>
	<path class="st0" d="M587.4,144.8c3,0.6,6.6-0.8,10.3-0.6c0.7,0,1.3,0,1.3-1c0-2.1,0.5-4.3-0.1-6.2c-2-6.4-5.8-11.2-12.3-13.9
		c-2.9-1.2-6-2.4-7.2-6c-0.6-1.7,0.3-1.7,1.4-1.9c2.2-0.3,4.3,0.3,6.5,0.1c3.7-0.3,7.4,1.4,11.1-0.5c0.7-0.4,2.2,0.6,3.3,1
		c4.4,1.5,8.9,2.6,13.1,4.8c4.2,2.2,5.4,4.9,4.7,9.7c-0.3,1.7,0.5,3.3,0.6,5c0.1,0.7,0.7,1.1,1.5,1c3.1-0.2,6.4,0.8,9.2-0.7
		c3.2-1.7,4.6,1.1,6.7,2c0.5,0.2,0.2,0.7-0.4,0.9c-4.7,1.6-6.6,6.7-10.8,8.9c-0.5,0.2-0.7,0.7-0.1,1.3c2.3,2.6,2.2,4.6-0.3,7.5
		c-2.8,3.3-5.8,6.5-8.1,10.2c-0.9,1.5-2.5,0.7-3.6,1.6c-3.5,2.6-7,5.1-10.5,7.6c-0.9,0.7-2.1,2-2.8,1.5c-1.5-1.1-0.4-2.7,0.2-4
		c1.3-3.1,3.8-5.5,4.5-9c0.6-2.9,0.4-5.7-0.4-8.5c-0.7-2.4-2.9-1.7-4.2-1.1c-3.6,1.6-7.1,3.5-10.3,5.7c-4.1,2.9-6.8,2.9-9.6-1.2
		c-2.8-3.9-3-8.3-1.5-12.9c0.4-1.2,1.2-1.7,2.5-1.6C583.5,144.9,585.1,144.8,587.4,144.8z"/>
	<path class="st0" d="M777.1,265.8c-4.7,1.6-7.2,5.2-10.3,8.1c-0.3,0.3-0.6,0.7-1,1c-2.7,1.8-3,2.6-1.2,5.4c1.6,2.6,3.5,5,2.4,8.4
		c-0.8,2.4-2.3,4.3-3.6,6.4c-1.5,2.3-3.6,4.1-5.5,6.1c-2.4,2.6-5.1,5-7.4,7.7c-2.1,2.5-4.9,4.4-8.8,4.2c0.7-2.7,1.2-5.8,2.2-8.7
		c0.9-2.8,2.3-6.3,1.5-8.4c-1.5-3.8,0.7-8.2-2.4-11.7c-1-1.1-1.3-1.9-3.1-1.5c-4.4,0.7-8.3,2.8-12.3,4.5c-3.3,1.4-7.4-0.6-7.9-4.2
		c-0.2-1.6-0.1-3.2,0-4.8c0.2-2.3,2.2-2.5,3.7-2.7c4.7-0.5,9.1-2.1,13.5-3.5c1.5-0.5,2.1-1,1.3-3.1c-1-2.8-0.4-6.1-0.1-9.2
		c0.1-0.7,0.7-1-0.4-1.3c-1.9-0.7-2.3-3.1-3.8-4s0.4-3.2-1.9-3.5c-1.8-0.2-2.7-2.5-4.8-2.7c-1.1-0.1-1.9-0.4-1.8-1.7
		c0.1-1.2,0.4-2.3,1.2-3.3c1.1,1,2-0.4,3-0.2c6.3,1.3,12.6,2.3,18.8,4.1c2.7,0.8,5.6,1.3,8.1,3.2c2.6,1.9,2.7,4.3,2.3,6.8
		c-0.6,4.2,0.5,5.8,4.7,6.3c1.1,0.1,2.3,0.3,3.2,0.7c1.8,0.6,3.2,1.4,4.6-0.6c0.2-0.2,1.9-0.9,2.4,0.9
		C774,266.2,775.7,264.8,777.1,265.8z"/>
	<path class="st0" d="M482.2,656.8c-4.6,0.4-6.7,4.3-9.7,7c-0.4,0.4-0.1,0.8,0,1.2c0.4,1.7,1.1,3.5,2.1,4.7
		c3.5,3.8,3.8,8.5,4.3,13.1c0.6,6.8,0.8,13.7,2.7,20.3c0.2,0.5,0.2,1.1-0.3,1c-0.9-0.2-1.7,0.9-2.6,0.1c-5.9-5.3-12-10.4-15.1-18
		c-0.6-1.4-1.8-2.4-2.7-3.5c-2.5-3-3.7-6.4-4.8-10c-0.9-2.8-1.7-3.8-5-2.3c-2.3,1.1-4.6,2.3-6.6,3.8c-3.2,2.3-6.1,2.1-7.9-1.3
		c-0.9-1.7-1.8-3.6-1.5-5.8c0.3-2.6,1.4-3.8,4-3.8c3.8,0,7.5-0.5,11.2-1.7c1.3-0.4,1.5-0.8,0.7-2.2c-2.3-4.1-4.3-8.4-2.9-13.2
		c0.4-1.3-0.5-2.4-0.8-3c-1.6-4.1,0.2-8,0.5-11.9c0.1-1.2,0.6-2.8,0.6-4c0.1-2.5,1.9-3.1,3.4-4.2c0.5-0.4,0.8-0.1,0.9,0.4
		c2.2,6.6,7.1,11.5,11.1,17c1.7,2.3,2.7,4.7,2.6,7.7c-0.1,5,2.5,6.9,7.3,5.7C477.9,652.8,479.6,653.4,482.2,656.8z"/>
	<path class="st0" d="M754.8,181.1c0.5,0.2,0.6,0.5,0.4,1c-0.3-0.2-0.5-0.3-0.8-0.5C754.5,181.5,754.6,181.3,754.8,181.1z"/>
	<path class="st0" d="M467.1,502.3c-0.2,0.2-0.2,0.4-0.3,0.5c-0.1-0.2-0.3-0.4-0.4-0.6c0-0.1,0.2-0.2,0.2-0.4
		C466.8,502,466.9,502.1,467.1,502.3z"/>
	<path class="st0" d="M817.1,504.9c0.2,0.3,0.3,0.5,0.5,0.8c-0.5,0.2-0.8,0.1-1-0.4C816.8,505.1,817,505,817.1,504.9z"/>
	<path class="st0" d="M713.8,683.1c0.5,0.2,0.6,0.5,0.4,1c-0.3-0.2-0.5-0.3-0.8-0.5C713.6,683.4,713.7,683.3,713.8,683.1z"/>
	<path class="st0" d="M311.5,729.1c0.1,0.3,0.3,0.5,0.3,0.7c0,0.1-0.2,0.2-0.3,0.4c-0.1-0.2-0.3-0.5-0.4-0.7
		C311.1,729.4,311.4,729.3,311.5,729.1z"/>
</g>
</svg>
