<svg version="1.1" xmlns="http://www.w3.org/2000/svg" viewBox="50 52 630 400">
  <path
    d="M0 0 C4.13405521 2.25974864 7.42796774 5.07799916 10.8125 8.3125 C15.29565504 12.59214733 20.0020322 16.33715958 25 20 C26.21770675 20.91589714 27.43388971 21.8338242 28.6484375 22.75390625 C62.0702881 47.96985765 96.82045765 70.37777609 134.51171875 88.7734375 C137.96570007 90.465928 141.36896415 92.24176907 144.76953125 94.0390625 C164.49743695 104.34519511 184.95403073 112.25258686 205.74121094 120.14129639 C225.41404054 127.62013987 244.64338283 135.61446896 262.66772461 146.58105469 C265.85537995 148.52040911 269.07825128 150.38929972 272.3125 152.25 C272.89322266 152.58773437 273.47394531 152.92546875 274.07226562 153.2734375 C276.62367803 154.73797705 278.97769202 155.99301121 281.79296875 156.875 C284 158 284 158 285.1875 160.421875 C285.455625 161.52015625 285.72375 162.6184375 286 163.75 C286.15460693 164.37181152 286.30921387 164.99362305 286.46850586 165.63427734 C288.54663265 174.52534807 289.82298162 183.62246667 291.16210938 192.65136719 C291.35740234 193.91368164 291.55269531 195.17599609 291.75390625 196.4765625 C291.92220947 197.61174316 292.0905127 198.74692383 292.26391602 199.91650391 C293.03102436 203.12996275 294.20920335 205.25004783 296 208 C296.33 208.99 296.66 209.98 297 211 C303.00099723 214.60059834 309.1882273 214.60470045 316 214 C319.05670369 212.78785888 320.55425817 211.9858125 323 210 C323.76828125 209.41347656 324.5365625 208.82695312 325.328125 208.22265625 C338.95001939 197.00339661 346.4953942 179.6431787 353.0625 163.625 C358.60732958 150.53386492 367.95941001 139.60272202 380 132 C378.66731642 128.0706443 377.01872691 125.69832553 374.125 122.75 C367.32596289 115.34632982 364.95029526 107.68220099 364.7890625 97.73828125 C364.76070313 96.53623047 364.73234375 95.33417969 364.703125 94.09570312 C364.65144793 91.59324094 364.60705939 89.09061658 364.5703125 86.58789062 C364.3237281 76.9556874 363.47494484 67.61758217 357 60 C349.97650147 56.38827211 341.01410333 56.99197405 333.515625 58.875 C314.68433709 65.72274106 300.7911251 79.4682797 292.3515625 97.52734375 C285.55103194 113.18533022 284.21344814 129.1424386 283 146 C278.71949396 144.49300536 275.1251281 142.25302627 271.375 139.75 C265.41383911 135.83685016 259.32920308 132.29376895 253 129 C257.11126325 100.22115723 277.29847318 74.58537096 299.56640625 57.0859375 C316.91919277 44.69413167 336.32965662 38.24719091 357.0715332 34.38549805 C359.0665473 33.98669728 361.0302983 33.50826587 363 33 C374.66114174 46.68736849 379.72616047 65.24246278 380.28955078 82.97875977 C380.73695449 96.50696966 381.65024292 109.37209261 391 120 C394.15304776 122.41870602 397.46857823 124.19859045 401 126 C402.55145594 126.94240296 404.09410012 127.89955937 405.625 128.875 C407.295625 129.926875 407.295625 129.926875 409 131 C406.88439452 134.17340823 406.34839189 134.5030396 403 135.8125 C382.99781003 144.32543205 371.54703951 159.06113586 363.421875 178.79296875 C359.31823749 188.70806684 354.29961613 197.31566271 348 206 C347.40316406 206.83015625 346.80632812 207.6603125 346.19140625 208.515625 C338.34398277 218.97885631 329.42834736 228.11365802 319 236 C317.85337891 236.88751953 317.85337891 236.88751953 316.68359375 237.79296875 C283.78842858 262.11646651 242.47647762 269.82057293 202.47070312 270.4296875 C187.41275466 270.82616667 175.39510983 274.1587133 164.625 285.125 C153.36727566 298.45861677 145.41913463 314.572695 137.37646484 329.96630859 C133.23025929 337.8734781 128.75038382 345.44674012 124 353 C123.23603186 354.24080535 122.47376705 355.48266513 121.71484375 356.7265625 C119.81672646 359.82195377 117.90815536 362.9107888 116 366 C115.401875 366.98355469 114.80375 367.96710938 114.1875 368.98046875 C106.65371669 381.17241718 99.95684434 387.15700745 86.4375 392.375 C71.48189497 395.09420091 59.68366253 389.77814919 46.77099609 382.93408203 C45.31184713 382.16447851 43.83922644 381.42047305 42.36328125 380.68359375 C30.73686382 374.69296215 22.90812982 365.83534153 15.21191406 355.57275391 C13.61360793 353.4985621 11.8881493 351.55988463 10.125 349.625 C7.36266506 346.5520676 5.20146205 343.33915772 3.140625 339.76171875 C2.05891674 337.95382442 2.05891674 337.95382442 0.515625 336.52734375 C-4.61961074 331.35240258 -6.99251526 323.83905818 -9 317 C-9.41958984 315.78763672 -9.41958984 315.78763672 -9.84765625 314.55078125 C-12.94659666 304.90803178 -14.34338934 290.53426928 -10 281 C-1.9183521 271.67502165 13.01790964 270.57777348 24.49249268 268.30978394 C83.87042413 259.25298223 83.87042413 259.25298223 132.4375 228.9375 C136.93810913 223.77826514 142.81445435 219.91420626 149 217 C148.92043607 214.0939315 148.92043607 214.0939315 148 211 C145.70023708 209.17486365 145.70023708 209.17486365 142.65625 207.9921875 C141.52421143 207.48655273 140.39217285 206.98091797 139.22583008 206.45996094 C137.9839011 205.93160681 136.74195738 205.40328736 135.5 204.875 C134.22758027 204.31288374 132.95634961 203.74806874 131.6862793 203.18066406 C129.07474849 202.01507637 126.45944618 200.85867194 123.84130859 199.70800781 C118.10863281 197.17463516 112.45789427 194.47130652 106.8125 191.75 C105.78141113 191.25306641 104.75032227 190.75613281 103.68798828 190.24414062 C81.17159014 179.33544009 61.39024822 167.14883429 43 150 C42.20980469 149.27554688 41.41960937 148.55109375 40.60546875 147.8046875 C28.24010074 136.01863398 18.56830756 121.698057 10 107 C9.44505859 106.06075684 9.44505859 106.06075684 8.87890625 105.10253906 C3.4360329 95.80026175 -0.4976019 86.49455325 -3 76 C-3.16371094 75.32066406 -3.32742187 74.64132813 -3.49609375 73.94140625 C-6.23065029 61.80539911 -6.30931157 49.50367137 -6.375 37.125 C-6.38294586 36.33380768 -6.39089172 35.54261536 -6.39907837 34.72744751 C-6.5898939 9.97819192 -6.5898939 9.97819192 0 0 Z "
    fill="#37474f"
    transform="translate(66,58)"
  />
  <path
    d="M0 0 C15.97253334 14.17480274 28.05789695 32.4414863 31 54 C27.7405115 52.61013153 26.04511325 51.08784584 23.875 48.3125 C19.84098833 43.55597878 15.22512038 40.34535146 10 37 C9.29875 36.52046875 8.5975 36.0409375 7.875 35.546875 C-13.78181988 21.46994208 -41.58719069 14.17213756 -67 11 C-67.74475586 10.89993652 -68.48951172 10.79987305 -69.25683594 10.69677734 C-102.86091281 6.3401851 -139.69864281 7.50454436 -172.890625 14.44921875 C-175.99524414 14.99915757 -178.85434867 15.10008891 -182 15 C-183.44933244 10.31656765 -184.43679964 5.71333246 -185.24291992 0.88037109 C-187.19738703 -10.683291 -190.64483033 -21.14065305 -195 -32 C-195.33 -32.99 -195.66 -33.98 -196 -35 C-194.32482188 -36.67517812 -192.15579861 -36.4470167 -189.85546875 -36.71875 C-188.78490234 -36.84636719 -187.71433594 -36.97398438 -186.61132812 -37.10546875 C-185.48146484 -37.23566406 -184.35160156 -37.36585937 -183.1875 -37.5 C-181.55651367 -37.69529297 -181.55651367 -37.69529297 -179.89257812 -37.89453125 C-121.8876656 -44.71863861 -46.27287742 -40.64780983 0 0 Z "
    fill="#FEC005"
    transform="translate(641,124)"
  />
  <path
    d="M0 0 C1.40625 1.38671875 1.40625 1.38671875 3.21875 3.51171875 C2.50187012 3.38547119 1.78499023 3.25922363 1.04638672 3.12915039 C-6.50067823 1.83148432 -14.04793816 0.81027919 -21.65625 -0.05078125 C-23.25919922 -0.23930664 -23.25919922 -0.23930664 -24.89453125 -0.43164062 C-39.03118293 -2.05234919 -53.06339971 -2.72801113 -67.28125 -2.73828125 C-68.13129608 -2.73895599 -68.98134216 -2.73963074 -69.85714722 -2.74032593 C-95.10230861 -2.70880519 -119.66618988 0.52124994 -144.4777832 4.92773438 C-147.78128757 5.51172539 -151.08667116 6.08184624 -154.39453125 6.640625 C-155.33594971 6.79990479 -156.27736816 6.95918457 -157.24731445 7.12329102 C-167.37186402 8.67528623 -176.53638991 5.6556875 -185 -0.015625 C-190.69171797 -4.72127779 -193.56147269 -10.58230739 -195.78125 -17.48828125 C-188.86234472 -21.10594056 -181.42656226 -21.91941366 -173.78125 -23.05078125 C-172.71064331 -23.21228165 -172.71064331 -23.21228165 -171.6184082 -23.37704468 C-121.09809888 -30.97243505 -42.04949057 -35.13345593 0 0 Z "
    fill="#394850"
    transform="translate(653.78125,172.48828125)"
  />
  <path
    d="M0 0 C3.8026029 2.0050088 5.61790841 3.42686262 8 7 C8.80103186 10.97435037 8.84566976 14.55942691 6.76171875 18.109375 C3.17968757 22.41136778 0.93467226 23.80970437 -4.8125 24.375 C-8.06504073 24.33906032 -9.83212381 23.78680009 -12.375 21.75 C-16.06941891 17.87965638 -16.86415885 16.42633204 -17.375 11.0625 C-17.29267724 7.90483402 -16.97145344 6.95310208 -15.25 4.125 C-10.6347278 -0.23386819 -6.17169204 -0.88778239 0 0 Z "
    fill="#394950"
    transform="translate(409,132)"
  />
</svg>